:SAMPLES-PER-SECOND 30
:FULLY-SPECIFIED
:DEGREES
425
root  -2.71072 22.4985 68.2468 9.34641 -0.638444 9.56383
RightUpLeg  -14.3782 -7.59765 -10.2723
RightLeg  112.939 15.8534 -0.46869
RightFoot  -44.1993 1.45655 4.69598
RightToes  5.82077e-011 -3.18055e-015 -2.98177e-016
Spine  36.6923 3.6109 0.34668
Spine1  -3.11245 2.3671 -6.52688
HEad  -34.3628 0.927694 5.87913
LeftShoulder1  -3.88251e-019 9.70628e-020 -3.87848e-018
LeftArm  -14.0426 11.4631 -66.6678
LeftForeArm  10.7297 -6.71105 -4.10987
LeftHand  -0.619635 -5.71031 6.97395
RightShoulder  6.17421 11.1142 27.4061
RightArm  14.7763 -12.6305 36.8313
RightForeArm  65.63 13.666 0.783975
RightHand  -2.14987 14.5314 -12.5786
LeftUpLeg  -79.7175 -6.36162 -21.9528
LeftLeg  101.971 -20.9999 24.9303
LeftFoot  -35.6256 -0.295387 -0.996557
LeftToes  9.37148e-011 4.50685e-012 -4.11107e-011
426
root  -2.60589 23.4551 68.3607 9.4908 -1.40216 8.89901
RightUpLeg  -13.9401 -6.47139 -9.65914
RightLeg  108.4 15.6662 0.0320153
RightFoot  -45.0455 1.48634 4.65945
RightToes  5.82077e-011 -3.18055e-015 -2.98177e-016
Spine  35.5844 3.63377 -0.484891
Spine1  -3.92455 2.21834 -5.84177
HEad  -36.8244 1.91276 4.96707
LeftShoulder1  -3.88251e-019 9.70628e-020 -3.87848e-018
LeftArm  -16.6912 16.7937 -65.7119
LeftForeArm  9.98917 -4.31496 -3.55136
LeftHand  -0.482789 -4.02557 6.43158
RightShoulder  6.69944 11.0625 30.2082
RightArm  24.7214 -14.217 33.8502
RightForeArm  53.7641 17.5377 -2.28062
RightHand  -2.23663 14.1051 -13.3509
LeftUpLeg  -77.2909 -5.71385 -21.1118
LeftLeg  98.9384 -19.6482 25.0602
LeftFoot  -35.3037 -0.370792 -1.40176
LeftToes  9.37148e-011 4.50685e-012 -4.11107e-011
427
root  -2.52172 24.4809 68.508 10.0371 -2.03191 8.21336
RightUpLeg  -13.9452 -6.59797 -8.59798
RightLeg  103.018 16.2629 -2.06752
RightFoot  -44.9629 1.41673 4.42758
RightToes  5.82077e-011 -3.18055e-015 -2.98177e-016
Spine  34.3194 3.56995 -1.02985
Spine1  -5.3366 2.06339 -5.41327
HEad  -38.3721 2.51901 4.11433
LeftShoulder1  -3.88251e-019 9.70628e-020 -3.87848e-018
LeftArm  -17.6817 22.3494 -64.5806
LeftForeArm  10.1778 -3.12884 -3.39453
LeftHand  -0.34689 -2.73184 5.39601
RightShoulder  6.99691 10.9721 31.9018
RightArm  33.3509 -17.377 31.5436
RightForeArm  37.6096 19.9784 -7.42317
RightHand  -2.35303 13.0632 -14.7935
LeftUpLeg  -75.0919 -4.99932 -20.2701
LeftLeg  95.7434 -18.1155 24.7465
LeftFoot  -34.8637 -0.440178 -1.7972
LeftToes  9.37148e-011 4.50685e-012 -4.11107e-011
428
root  -2.45483 25.5447 68.6776 10.5404 -2.45459 7.38943
RightUpLeg  -13.6044 -7.21693 -7.14775
RightLeg  96.8851 16.6748 -5.48256
RightFoot  -44.4796 1.2866 4.04287
RightToes  5.82077e-011 -3.18055e-015 -2.98177e-016
Spine  33.3811 3.14859 -0.76676
Spine1  -7.31953 1.81163 -5.84919
HEad  -38.7392 2.92227 3.78066
LeftShoulder1  -3.88251e-019 9.70628e-020 -3.87848e-018
LeftArm  -17.2953 27.9457 -63.0661
LeftForeArm  11.3174 -2.94505 -3.50201
LeftHand  -0.236669 -2.25273 3.96629
RightShoulder  7.17554 10.9208 32.9109
RightArm  35.9655 -21.5098 29.7234
RightForeArm  23.9612 21.454 -11.3868
RightHand  -2.32598 11.6646 -15.7825
LeftUpLeg  -72.8031 -4.01846 -19.5455
LeftLeg  92.291 -16.5537 24.5147
LeftFoot  -33.9557 -0.198806 -0.565329
LeftToes  9.37148e-011 4.50685e-012 -4.11107e-011
429
root  -2.40645 26.649 68.8695 10.8867 -2.57171 6.53962
RightUpLeg  -12.5395 -7.08538 -5.68265
RightLeg  90.5522 16.3032 -7.40882
RightFoot  -44.1644 1.34248 4.29132
RightToes  5.82077e-011 -3.18055e-015 -2.98177e-016
Spine  32.5443 2.58858 -0.150907
Spine1  -9.03846 1.46983 -6.40234
HEad  -38.5012 3.1618 3.80311
LeftShoulder1  -3.88251e-019 9.70628e-020 -3.87848e-018
LeftArm  -16.492 33.2016 -61.5608
LeftForeArm  11.9544 -3.41338 -3.65127
LeftHand  -0.182252 -2.16746 3.12204
RightShoulder  7.34345 10.9217 33.7538
RightArm  34.0162 -25.276 28.0975
RightForeArm  14.8032 23.1444 -13.198
RightHand  -2.18112 10.0056 -16.3696
LeftUpLeg  -70.2302 -3.05207 -18.8774
LeftLeg  88.5318 -14.926 24.373
LeftFoot  -32.5299 0.259611 2.03538
LeftToes  9.37148e-011 4.50685e-012 -4.11107e-011
430
root  -2.37895 27.8027 69.1018 11.3542 -2.4469 5.74124
RightUpLeg  -11.2068 -5.76375 -4.37544
RightLeg  84.4895 15.6319 -6.64278
RightFoot  -43.3499 1.60315 5.39668
RightToes  5.82077e-011 -3.18055e-015 -2.98177e-016
Spine  31.3433 2.18479 0.376383
Spine1  -10.1637 1.22142 -6.52987
HEad  -38.394 2.97533 3.76721
LeftShoulder1  -3.88251e-019 9.70628e-020 -3.87848e-018
LeftArm  -15.9843 37.8472 -60.5512
LeftForeArm  11.4933 -4.11872 -3.76837
LeftHand  -0.217956 -2.17782 3.68442
RightShoulder  7.49609 10.9377 34.4833
RightArm  31.1457 -28.2562 26.5538
RightForeArm  8.61128 24.8146 -13.7086
RightHand  -2.03817 8.2861 -17.1748
LeftUpLeg  -67.5114 -2.35924 -18.0408
LeftLeg  84.5656 -13.2198 23.7293
LeftFoot  -31.1755 0.518566 3.77742
LeftToes  9.37148e-011 4.50685e-012 -4.11107e-011
431
root  -2.37035 29.0048 69.3512 12.1053 -2.2209 5.0484
RightUpLeg  -10.2702 -4.08985 -3.20428
RightLeg  78.7477 15.269 -4.84067
RightFoot  -40.6947 1.71081 6.40912
RightToes  5.82077e-011 -3.18055e-015 -2.98177e-016
Spine  29.7344 1.97498 0.880385
Spine1  -10.9196 1.18857 -6.70552
HEad  -38.4733 2.29579 3.78632
LeftShoulder1  -3.88251e-019 9.70628e-020 -3.87848e-018
LeftArm  -15.8913 41.7935 -60.0872
LeftForeArm  10.992 -4.93005 -3.75689
LeftHand  -0.314179 -2.45768 5.06976
RightShoulder  7.62882 10.9381 35.1424
RightArm  29.806 -30.6103 24.9759
RightForeArm  4.26769 25.7236 -14.0018
RightHand  -1.98094 7.19411 -18.092
LeftUpLeg  -64.8326 -1.88176 -17.0593
LeftLeg  80.3082 -11.5239 22.3451
LeftFoot  -30.1356 0.477944 3.72659
LeftToes  9.37148e-011 4.50685e-012 -4.11107e-011
432
root  -2.37268 30.2432 69.601 12.9356 -1.88516 4.46912
RightUpLeg  -9.87563 -3.20039 -2.21183
RightLeg  73.4803 15.1595 -3.66179
RightFoot  -35.8207 1.56694 7.21604
RightToes  5.82077e-011 -3.18055e-015 -2.98177e-016
Spine  27.9542 1.84156 1.47601
Spine1  -11.4169 1.29181 -7.17307
HEad  -38.3092 1.5289 4.17456
LeftShoulder1  -3.88251e-019 9.70628e-020 -3.87848e-018
LeftArm  -16.099 45.1122 -59.993
LeftForeArm  11.0971 -6.01207 -3.54975
LeftHand  -0.37917 -2.82866 5.82585
RightShoulder  7.77539 10.9329 35.8788
RightArm  29.4489 -32.3365 23.275
RightForeArm  2.7317 25.901 -14.0292
RightHand  -1.95341 6.83943 -18.3497
LeftUpLeg  -62.0517 -1.4361 -16.1525
LeftLeg  75.5781 -9.91358 20.5795
LeftFoot  -29.0133 0.389376 3.34709
LeftToes  9.37148e-011 4.50685e-012 -4.11107e-011
433
root  -2.37595 31.4962 69.8501 13.483 -1.40268 3.81905
RightUpLeg  -10.0113 -3.21417 -1.39849
RightLeg  69.4368 15.2554 -2.68453
RightFoot  -28.9523 1.36676 9.26629
RightToes  5.82077e-011 -3.18055e-015 -2.98177e-016
Spine  26.2641 1.73549 2.11705
Spine1  -11.6139 1.41797 -7.31552
HEad  -37.8425 1.07045 4.57546
LeftShoulder1  -3.88251e-019 9.70628e-020 -3.87848e-018
LeftArm  -16.5643 47.9437 -60.292
LeftForeArm  10.9843 -7.40223 -3.2919
LeftHand  -0.352915 -2.80563 5.43907
RightShoulder  7.89592 10.9348 36.4685
RightArm  29.6982 -33.5775 21.7579
RightForeArm  2.9657 25.6857 -13.9257
RightHand  -1.85912 6.68424 -17.6992
LeftUpLeg  -58.8935 -0.96914 -15.2586
LeftLeg  70.3938 -8.40249 18.8942
LeftFoot  -27.3734 0.441492 4.12898
LeftToes  9.37148e-011 4.50685e-012 -4.11107e-011
434
root  -2.37261 32.7615 70.0753 13.5699 -0.884276 2.93304
RightUpLeg  -11.0766 -3.35163 -0.756504
RightLeg  67.4128 15.6993 -1.22031
RightFoot  -19.0206 0.69381 12.8622
RightToes  5.82077e-011 -3.18055e-015 -2.98177e-016
Spine  24.9503 1.65278 2.79016
Spine1  -11.6233 1.55382 -6.80836
HEad  -37.434 0.850401 4.38969
LeftShoulder1  -3.88251e-019 9.70628e-020 -3.87848e-018
LeftArm  -17.2825 50.3361 -61.1415
LeftForeArm  10.088 -8.74734 -3.17232
LeftHand  -0.303835 -2.59162 4.83674
RightShoulder  7.89027 10.9234 36.4655
RightArm  30.2792 -34.7524 20.776
RightForeArm  3.56299 25.4629 -13.8343
RightHand  -1.71857 6.53066 -16.5963
LeftUpLeg  -55.2386 -0.596528 -14.1291
LeftLeg  64.7934 -6.92374 17.4448
LeftFoot  -25.1631 0.534221 5.69966
LeftToes  9.37148e-011 4.50685e-012 -4.11107e-011
435
root  -2.36255 33.9776 70.2632 13.3041 -0.501095 1.96705
RightUpLeg  -13.376 -3.26639 -0.394985
RightLeg  67.3489 16.1912 0.131561
RightFoot  -5.49032 -1.03182 15.5499
RightToes  5.82077e-011 -3.18055e-015 -2.98177e-016
Spine  24.1075 1.56815 3.47937
Spine1  -11.7087 1.68785 -6.18884
HEad  -37.1274 0.68307 3.89353
LeftShoulder1  -3.88251e-019 9.70628e-020 -3.87848e-018
LeftArm  -18.147 52.2382 -62.4985
LeftForeArm  9.18116 -9.65508 -3.19763
LeftHand  -0.321917 -2.916 4.91407
RightShoulder  7.777 10.8867 35.9883
RightArm  31.125 -35.9647 20.2076
RightForeArm  4.09096 25.2802 -13.7612
RightHand  -1.63318 6.67158 -15.6139
LeftUpLeg  -51.3074 -0.485143 -12.8295
LeftLeg  59.0039 -5.45311 16.2223
LeftFoot  -22.7129 0.519822 6.8876
LeftToes  9.37148e-011 4.50685e-012 -4.11107e-011
